<mxfile host="app.diagrams.net" modified="2021-06-01T15:02:41.500Z" agent="5.0 (Windows NT 10.0; Win64; x64) AppleWebKit/537.36 (KHTML, like Gecko) Chrome/91.0.4472.77 Safari/537.36" etag="-13LP3QfMziZbs_PYx1C" version="14.7.2" type="github">
  <diagram id="R2lEEEUBdFMjLlhIrx00" name="Page-1">
    <mxGraphModel dx="1422" dy="798" grid="1" gridSize="10" guides="1" tooltips="1" connect="1" arrows="1" fold="1" page="1" pageScale="1" pageWidth="850" pageHeight="1100" math="0" shadow="0" extFonts="Permanent Marker^https://fonts.googleapis.com/css?family=Permanent+Marker">
      <root>
        <mxCell id="0" />
        <mxCell id="1" parent="0" />
        <mxCell id="z85_bq2B5rJoclS2Feb8-30" value="Usuarios" style="swimlane;childLayout=stackLayout;horizontal=1;startSize=30;horizontalStack=0;rounded=1;fontSize=14;fontStyle=0;strokeWidth=2;resizeParent=0;resizeLast=1;shadow=0;dashed=0;align=center;" vertex="1" parent="1">
          <mxGeometry x="125" y="80" width="265" height="160" as="geometry" />
        </mxCell>
        <mxCell id="z85_bq2B5rJoclS2Feb8-31" value="&#xa;usuario_ID NOT NULL AUTO INCREMENT &#xa;nome_completoVARCHAR(20)&#xa;email VARCHAR(30)&#xa;senha CHAR(60)&#xa;categoria VARCHAR(20)&#xa;PRIMARY KEY (ID)&#xa;FOREIGN KEY (disciplinas_ID)" style="align=left;strokeColor=none;fillColor=none;spacingLeft=4;fontSize=12;verticalAlign=top;resizable=0;rotatable=0;part=1;" vertex="1" parent="z85_bq2B5rJoclS2Feb8-30">
          <mxGeometry y="30" width="265" height="130" as="geometry" />
        </mxCell>
        <mxCell id="z85_bq2B5rJoclS2Feb8-32" value="assuntos&#xa;" style="swimlane;childLayout=stackLayout;horizontal=1;startSize=30;horizontalStack=0;rounded=1;fontSize=14;fontStyle=0;strokeWidth=2;resizeParent=0;resizeLast=1;shadow=0;dashed=0;align=center;" vertex="1" parent="1">
          <mxGeometry x="520" y="180" width="250" height="190" as="geometry" />
        </mxCell>
        <mxCell id="z85_bq2B5rJoclS2Feb8-33" value="&#xa;assunto_ID NOT NULL AUTO INCREMENT&#xa;titulo VARCHAR(15) &#xa;descricao VARCHAR(50)&#xa;imagem IMAGE &#xa;data_inicio DATE&#xa;data_termino DATE&#xa;capacidade_maxima INT&#xa;PRIMARY KEY (assunto_ID)&#xa;FOREIGN KEY (modulo_ID)" style="align=left;strokeColor=none;fillColor=none;spacingLeft=4;fontSize=12;verticalAlign=top;resizable=0;rotatable=0;part=1;" vertex="1" parent="z85_bq2B5rJoclS2Feb8-32">
          <mxGeometry y="30" width="250" height="160" as="geometry" />
        </mxCell>
        <mxCell id="z85_bq2B5rJoclS2Feb8-34" value="disciplinas" style="swimlane;childLayout=stackLayout;horizontal=1;startSize=30;horizontalStack=0;rounded=1;fontSize=14;fontStyle=0;strokeWidth=2;resizeParent=0;resizeLast=1;shadow=0;dashed=0;align=center;" vertex="1" parent="1">
          <mxGeometry x="80" y="410" width="270" height="150" as="geometry" />
        </mxCell>
        <mxCell id="z85_bq2B5rJoclS2Feb8-35" value="disciplinas_ID NOT NULL AUTO INCREMENT&#xa;PRIMARY KEY(disciplinas_ID)&#xa;FOREIGN KEY (modulos_ID)" style="align=left;strokeColor=none;fillColor=none;spacingLeft=4;fontSize=12;verticalAlign=top;resizable=0;rotatable=0;part=1;" vertex="1" parent="z85_bq2B5rJoclS2Feb8-34">
          <mxGeometry y="30" width="270" height="120" as="geometry" />
        </mxCell>
        <mxCell id="z85_bq2B5rJoclS2Feb8-40" style="edgeStyle=orthogonalEdgeStyle;rounded=0;orthogonalLoop=1;jettySize=auto;html=1;entryX=1.007;entryY=0.325;entryDx=0;entryDy=0;entryPerimeter=0;" edge="1" parent="1" source="z85_bq2B5rJoclS2Feb8-36" target="z85_bq2B5rJoclS2Feb8-35">
          <mxGeometry relative="1" as="geometry" />
        </mxCell>
        <mxCell id="z85_bq2B5rJoclS2Feb8-36" value="modulos" style="swimlane;childLayout=stackLayout;horizontal=1;startSize=30;horizontalStack=0;rounded=1;fontSize=14;fontStyle=0;strokeWidth=2;resizeParent=0;resizeLast=1;shadow=0;dashed=0;align=center;" vertex="1" parent="1">
          <mxGeometry x="510" y="460" width="250" height="140" as="geometry" />
        </mxCell>
        <mxCell id="z85_bq2B5rJoclS2Feb8-37" value="&#xa;modulo_ID NOT NULL AUTO INCREMENT&#xa;titulo VARCHAR(15)&#xa;descricao VARCHAR(50)&#xa;data_inicio DATE&#xa;PRIMARY KEY (modulo_ID)&#xa;FOREIGN KEY (assunto_ID)" style="align=left;strokeColor=none;fillColor=none;spacingLeft=4;fontSize=12;verticalAlign=top;resizable=0;rotatable=0;part=1;" vertex="1" parent="z85_bq2B5rJoclS2Feb8-36">
          <mxGeometry y="30" width="250" height="110" as="geometry" />
        </mxCell>
        <mxCell id="z85_bq2B5rJoclS2Feb8-41" style="edgeStyle=orthogonalEdgeStyle;rounded=0;orthogonalLoop=1;jettySize=auto;html=1;entryX=0.312;entryY=-0.007;entryDx=0;entryDy=0;entryPerimeter=0;" edge="1" parent="1" source="z85_bq2B5rJoclS2Feb8-33" target="z85_bq2B5rJoclS2Feb8-36">
          <mxGeometry relative="1" as="geometry" />
        </mxCell>
        <mxCell id="z85_bq2B5rJoclS2Feb8-44" value="" style="edgeStyle=entityRelationEdgeStyle;fontSize=12;html=1;endArrow=ERzeroToMany;endFill=1;startArrow=ERzeroToMany;entryX=0.304;entryY=1.036;entryDx=0;entryDy=0;entryPerimeter=0;exitX=0.348;exitY=-0.02;exitDx=0;exitDy=0;exitPerimeter=0;" edge="1" parent="1" source="z85_bq2B5rJoclS2Feb8-34" target="z85_bq2B5rJoclS2Feb8-31">
          <mxGeometry width="100" height="100" relative="1" as="geometry">
            <mxPoint x="130" y="470" as="sourcePoint" />
            <mxPoint x="230" y="370" as="targetPoint" />
          </mxGeometry>
        </mxCell>
      </root>
    </mxGraphModel>
  </diagram>
</mxfile>
